<?xml version="1.0" encoding="UTF-8"?>
<svg width="224px" height="173px" viewBox="0 0 224 173" version="1.1" xmlns="http://www.w3.org/2000/svg" xmlns:xlink="http://www.w3.org/1999/xlink">
    <title>E7EB4F83-7105-4FE8-AF8E-C0712DE0C813</title>
    <defs>
        <rect id="path-1" x="0" y="0" width="177" height="172"></rect>
        <linearGradient x1="50%" y1="0%" x2="50%" y2="100%" id="linearGradient-3">
            <stop stop-color="#F2F2F2" offset="0%"></stop>
            <stop stop-color="#F2F2F2" offset="48.7743956%"></stop>
            <stop stop-color="#F0F0F0" offset="100%"></stop>
        </linearGradient>
        <rect id="path-4" x="11.8292683" y="0.384098329" width="146.341463" height="294.603418" rx="20"></rect>
    </defs>
    <g id="Page-1" stroke="none" stroke-width="1" fill="none" fill-rule="evenodd">
        <g id="Registro-Web-2" transform="translate(-803.000000, -316.000000)">
            <g id="Group-3" transform="translate(803.000000, 316.000000)">
                <g id="Group-5" transform="translate(24.000000, 0.500000)">
                    <mask id="mask-2" fill="white">
                        <use xlink:href="#path-1"></use>
                    </mask>
                    <g id="Rectangle"></g>
                    <g id="Cellphone-Copy" mask="url(#mask-2)">
                        <g transform="translate(5.000000, -126.000000)" id="Group-2-Copy">
                            <g>
                                <ellipse id="Oval" fill="#5A33FF" cx="84" cy="295" rx="84" ry="3"></ellipse>
                                <g id="Sombra" style="mix-blend-mode: multiply;">
                                    <use fill="#6F6F6F" xlink:href="#path-4"></use>
                                    <use fill="url(#linearGradient-3)" xlink:href="#path-4"></use>
                                </g>
                                <path d="M138.170732,0.884098329 L31.8292683,0.884098329 C26.444492,0.884098329 21.569492,3.06671017 18.0406861,6.5955161 C14.5118801,10.124322 12.3292683,14.999322 12.3292683,20.3840983 L12.1759462,45.3612314 C11.6542039,45.2287123 11.1649219,45.4055222 10.8512011,45.7461389 C10.6331287,45.9829071 10.5,46.2990849 10.5,46.6463415 L10.506056,63.2378152 C10.5363047,63.5550965 10.6795719,63.8395769 10.9089871,64.050877 C11.2410805,64.3567475 11.7468426,64.5065428 12.3377862,64.4234899 L12.1705089,74.6281539 C11.6508059,74.4982356 11.1638319,74.6749984 10.8512011,75.0144316 C10.6331287,75.2511998 10.5,75.5673776 10.5,75.9146341 L10.506059,102.567115 C10.5363142,102.884384 10.6795795,103.168852 10.9089871,103.380145 C11.2417734,103.686654 11.7489541,103.836436 12.3414866,103.752235 L12.1668331,111.212606 C11.6485103,111.084436 11.1630947,111.261165 10.8512011,111.599797 C10.6331287,111.836566 10.5,112.152743 10.5,112.5 L10.506059,139.152481 C10.5363142,139.46975 10.6795795,139.754218 10.9089871,139.965511 C11.2394837,140.269911 11.7419832,140.419733 12.3292683,140.339306 L12.3292683,274.987517 C12.3292683,280.372293 14.5118801,285.247293 18.0406861,288.776099 C21.569492,292.304905 26.444492,294.487517 31.8292683,294.487517 L138.170732,294.487517 C143.555508,294.487517 148.430508,292.304905 151.959314,288.776099 C155.48812,285.247293 157.670732,280.372293 157.670732,274.987517 L157.8212,90.9185287 C158.344012,91.0524195 158.834506,90.8755864 159.148799,90.5343489 C159.366871,90.2975807 159.5,89.9814029 159.5,89.6341463 L159.5,66.7682927 C159.5,66.4012254 159.351217,66.0689083 159.110666,65.8283581 C158.764244,65.4819356 158.227501,65.3258339 157.670732,65.530348 L157.670732,20.3840983 C157.670732,14.999322 155.48812,10.124322 151.959314,6.5955161 C148.430508,3.06671017 143.555508,0.884098329 138.170732,0.884098329 Z" id="Combined-Shape" stroke="#FFFFFF" fill="#5A33FF"></path>
                                <rect id="Rectangle" stroke="#FFFFFF" fill="#5A33FF" transform="translate(85.000000, 147.301709) scale(-1, 1) translate(-85.000000, -147.301709) " x="15.9878049" y="5.11878241" width="138.02439" height="284.365854" rx="18"></rect>
                            </g>
                        </g>
                    </g>
                </g>
                <rect id="Rectangle-Copy-5" fill="#FFFFFF" opacity="0.300000012" x="63" y="82" width="101" height="14" rx="7"></rect>
                <rect id="Rectangle-Copy-6" fill="#FFFFFF" opacity="0.300000012" x="63" y="54" width="101" height="14" rx="7"></rect>
                <rect id="Rectangle" stroke="#FFFFFF" fill="#5A33FF" x="53.5" y="105.5" width="119" height="46" rx="10"></rect>
                <circle id="Oval" stroke="#FFFFFF" cx="113.5" cy="134.5" r="13"></circle>
                <g id="QR-Copy" transform="translate(106.000000, 127.000000)" fill="#FFFFFF" fill-rule="nonzero">
                    <g id="barcode">
                        <polygon id="Path" points="0.87890625 0.87890625 2.45674805 0.87890625 2.45674805 0 0 0 0 2.45674805 0.87890625 2.45674805"></polygon>
                        <polygon id="Path" points="12.543252 0 12.543252 0.87890625 14.1210938 0.87890625 14.1210938 2.45674805 15 2.45674805 15 0"></polygon>
                        <polygon id="Path" points="0.87890625 12.543252 0 12.543252 0 15 2.45674805 15 2.45674805 14.1210938 0.87890625 14.1210938"></polygon>
                        <polygon id="Path" points="14.1210938 14.1210938 12.543252 14.1210938 12.543252 15 15 15 15 12.543252 14.1210938 12.543252"></polygon>
                        <path d="M2.01729492,6.93079102 L6.93079102,6.93079102 L6.93079102,2.01729492 L2.01729492,2.01729492 L2.01729492,6.93079102 Z M2.89620117,2.89620117 L6.05188477,2.89620117 L6.05188477,6.05188477 L2.89620117,6.05188477 L2.89620117,2.89620117 Z" id="Shape"></path>
                        <path d="M12.9827051,8.06920898 L8.06920898,8.06920898 L8.06920898,12.9827051 L12.9827051,12.9827051 L12.9827051,8.06920898 Z M8.94811523,8.94811523 L12.1037988,8.94811523 L12.1037988,10.0865039 L10.0865332,10.0865039 L10.0865332,12.1037695 L8.94811523,12.1037695 L8.94811523,8.94811523 L8.94811523,8.94811523 Z M10.9654102,12.1037988 L10.9654102,10.9654395 L12.1037695,10.9654395 L12.1037695,12.1037988 L10.9654102,12.1037988 Z" id="Shape"></path>
                        <path d="M6.05188477,10.0865039 L4.91349609,10.0865039 L4.91349609,8.06920898 L2.01729492,8.06920898 L2.01729492,12.9827051 L6.93079102,12.9827051 L6.93079102,8.50866211 L6.05188477,8.50866211 L6.05188477,10.0865039 Z M6.05188477,12.1037988 L2.89620117,12.1037988 L2.89620117,8.94811523 L4.03458984,8.94811523 L4.03458984,10.9654102 L6.05188477,10.9654102 L6.05188477,12.1037988 Z" id="Shape"></path>
                        <polygon id="Path" points="4.03458984 4.03458984 4.91349609 4.03458984 4.91349609 4.91349609 4.03458984 4.91349609"></polygon>
                        <path d="M8.94811523,2.89620117 L10.0865039,2.89620117 L10.0865039,4.9134668 L12.1037695,4.9134668 L12.1037695,6.05185547 L8.06944336,6.05185547 L8.06944336,6.93076172 L12.9826758,6.93076172 L12.9826758,2.01729492 L8.06920898,2.01729492 L8.06920898,4.90722656 L8.94811523,4.90722656 L8.94811523,2.89620117 Z M10.9654102,2.89620117 L12.1037695,2.89620117 L12.1037695,4.03456055 L10.9654102,4.03456055 L10.9654102,2.89620117 Z" id="Shape"></path>
                    </g>
                </g>
                <rect id="Rectangle-Copy-4" fill="#FFFFFF" opacity="0.3" x="87" y="111" width="52" height="5" rx="2.5"></rect>
                <line x1="0" y1="0.5" x2="224" y2="0.5" id="Path-2" stroke="#FFFFFF"></line>
                <g id="Group-6" transform="translate(68.000000, 105.500000) scale(1, -1) rotate(-167.000000) translate(-68.000000, -105.500000) translate(36.000000, 85.000000)" stroke="#FFFFFF" stroke-linecap="round" stroke-linejoin="round" stroke-width="2">
                    <path d="M63.5631459,1.05847266 C39.3429624,-2.25705604 5.76498074,20.9516449 3.56314588,39.7396408" id="Path-5"></path>
                    <polyline id="Path-6" points="0.704775715 37.1063526 3.62144238 40.1063526 7.70477571 37.7063526"></polyline>
                </g>
            </g>
        </g>
    </g>
</svg>