<?xml version="1.0" encoding="UTF-8"?>
<svg width="224px" height="173px" viewBox="0 0 224 173" version="1.1" xmlns="http://www.w3.org/2000/svg" xmlns:xlink="http://www.w3.org/1999/xlink">
    <title>4DC84B46-670A-471E-AEAD-00F005DB881D</title>
    <defs>
        <linearGradient x1="50%" y1="0%" x2="50%" y2="100%" id="linearGradient-1">
            <stop stop-color="#F2F2F2" offset="0%"></stop>
            <stop stop-color="#F2F2F2" offset="48.7743956%"></stop>
            <stop stop-color="#F0F0F0" offset="100%"></stop>
        </linearGradient>
        <rect id="path-2" x="11.8292683" y="0.384098329" width="146.341463" height="294.603418" rx="20"></rect>
    </defs>
    <g id="Page-1" stroke="none" stroke-width="1" fill="none" fill-rule="evenodd">
        <g id="Registro-Web-4" transform="translate(-803.000000, -316.000000)">
            <rect fill="#F1F2F3" x="0" y="0" width="1280" height="720"></rect>
            <path d="M1077.64365,65.5418095 C1048.83723,33.1551578 1000.14824,27.7124351 965.065697,53.1608412 C839.641308,144.167087 685.410497,197.834295 518.602924,197.834295 C351.721802,197.834295 197.417443,144.118054 71.9685375,53.0382574 C36.8859924,27.5653345 -11.8029905,32.9835404 -40.6094129,65.3947089 C-73.9513146,102.831815 -67.5035792,160.863007 -26.9294268,190.28313 C126.345257,301.44216 314.80055,367 518.602924,367 C722.307233,367 910.664462,301.491193 1063.89011,190.454747 C1104.5133,161.034624 1110.93652,103.003432 1077.64365,65.5418095" id="Fill-3" fill="#ECEDEE" opacity="0.9"></path>
            <path d="M708,126 L1122,126 C1129.1797,126 1135,131.820298 1135,139 L1135,582 C1135,589.179702 1129.1797,595 1122,595 L708,595 C700.820298,595 695,589.179702 695,582 L695,139 C695,131.820298 700.820298,126 708,126 Z" id="Rectangle" fill="#5A33FF"></path>
            <g id="Cel" transform="translate(803.000000, 190.500000)">
                <g id="Cellphone-Copy" transform="translate(29.000000, 0.000000)">
                    <g id="Group-2-Copy">
                        <ellipse id="Oval" fill="#5A33FF" cx="84" cy="295" rx="84" ry="3"></ellipse>
                        <g id="Sombra" style="mix-blend-mode: multiply;">
                            <use fill="#6F6F6F" xlink:href="#path-2"></use>
                            <use fill="url(#linearGradient-1)" xlink:href="#path-2"></use>
                        </g>
                        <path d="M138.170732,0.884098329 L31.8292683,0.884098329 C26.444492,0.884098329 21.569492,3.06671017 18.0406861,6.5955161 C14.5118801,10.124322 12.3292683,14.999322 12.3292683,20.3840983 L12.1759462,45.3612314 C11.6542039,45.2287123 11.1649219,45.4055222 10.8512011,45.7461389 C10.6331287,45.9829071 10.5,46.2990849 10.5,46.6463415 L10.506056,63.2378152 C10.5363047,63.5550965 10.6795719,63.8395769 10.9089871,64.050877 C11.2410805,64.3567475 11.7468426,64.5065428 12.3377862,64.4234899 L12.1705089,74.6281539 C11.6508059,74.4982356 11.1638319,74.6749984 10.8512011,75.0144316 C10.6331287,75.2511998 10.5,75.5673776 10.5,75.9146341 L10.506059,102.567115 C10.5363142,102.884384 10.6795795,103.168852 10.9089871,103.380145 C11.2417734,103.686654 11.7489541,103.836436 12.3414866,103.752235 L12.1668331,111.212606 C11.6485103,111.084436 11.1630947,111.261165 10.8512011,111.599797 C10.6331287,111.836566 10.5,112.152743 10.5,112.5 L10.506059,139.152481 C10.5363142,139.46975 10.6795795,139.754218 10.9089871,139.965511 C11.2394837,140.269911 11.7419832,140.419733 12.3292683,140.339306 L12.3292683,274.987517 C12.3292683,280.372293 14.5118801,285.247293 18.0406861,288.776099 C21.569492,292.304905 26.444492,294.487517 31.8292683,294.487517 L138.170732,294.487517 C143.555508,294.487517 148.430508,292.304905 151.959314,288.776099 C155.48812,285.247293 157.670732,280.372293 157.670732,274.987517 L157.8212,90.9185287 C158.344012,91.0524195 158.834506,90.8755864 159.148799,90.5343489 C159.366871,90.2975807 159.5,89.9814029 159.5,89.6341463 L159.5,66.7682927 C159.5,66.4012254 159.351217,66.0689083 159.110666,65.8283581 C158.764244,65.4819356 158.227501,65.3258339 157.670732,65.530348 L157.670732,20.3840983 C157.670732,14.999322 155.48812,10.124322 151.959314,6.5955161 C148.430508,3.06671017 143.555508,0.884098329 138.170732,0.884098329 Z" id="Combined-Shape" stroke="#FFFFFF" fill="#5A33FF"></path>
                        <rect id="Rectangle" stroke="#FFFFFF" fill="#5A33FF" transform="translate(85.000000, 147.301709) scale(-1, 1) translate(-85.000000, -147.301709) " x="15.9878049" y="5.11878241" width="138.02439" height="284.365854" rx="18"></rect>
                    </g>
                </g>
                <line x1="0" y1="126" x2="224" y2="126" id="Path-2" stroke="#FFFFFF"></line>
                <rect id="Rectangle" fill-opacity="0.2" fill="#FFFFFF" x="45" y="164.5" width="138" height="125"></rect>
                <circle id="Oval" fill="#FFFFFF" opacity="0.300000012" cx="115" cy="219.5" r="15"></circle>
                <rect id="Rectangle-Copy-5" fill="#FFFFFF" opacity="0.300000012" x="78" y="189.5" width="73" height="5" rx="2.5"></rect>
                <rect id="Rectangle-Copy-6" fill="#FFFFFF" opacity="0.300000012" x="64" y="179.5" width="101" height="5" rx="2.5"></rect>
                <rect id="Rectangle-Copy-6" fill="#FFFFFF" x="76" y="248.5" width="79" height="15" rx="7.5"></rect>
                <line x1="103" y1="274.5" x2="132" y2="274.5" id="Path-7" stroke="#FFFFFF" stroke-width="3" opacity="0.400000006"></line>
                <g id="Group-6" transform="translate(54.000000, 229.000000) scale(1, -1) rotate(-167.000000) translate(-54.000000, -229.000000) translate(22.000000, 208.500000)" stroke="#FFFFFF" stroke-linecap="round" stroke-linejoin="round" stroke-width="2">
                    <path d="M63.5631459,1.05847266 C39.3429624,-2.25705604 5.76498074,20.9516449 3.56314588,39.7396408" id="Path-5"></path>
                    <polyline id="Path-6" points="0.704775715 37.1063526 3.62144238 40.1063526 7.70477571 37.7063526"></polyline>
                </g>
            </g>
        </g>
    </g>
</svg>