<?xml version="1.0" encoding="UTF-8"?>
<svg width="141px" height="45px" viewBox="0 0 141 45" version="1.1" xmlns="http://www.w3.org/2000/svg" xmlns:xlink="http://www.w3.org/1999/xlink">
    <title>461698EF-7298-4139-AF94-E82344BFD1F6</title>
    <g id="Page-1" stroke="none" stroke-width="1" fill="none" fill-rule="evenodd">
        <g id="Registro-Web-1" transform="translate(-178.000000, -202.000000)">
            <g id="Group-17" transform="translate(178.000000, 202.000000)">
                <g id="Group-7" fill="#6550FE">
                    <path d="M17.5961538,5.02757662 C24.5372678,5.02757662 30.164627,10.6548193 30.164627,17.5965182 C30.164627,24.5374884 24.5372678,30.1654597 17.5961538,30.1654597 C10.6543112,30.1654597 5.02695206,24.5374884 5.02695206,17.5965182 C5.02695206,10.6548193 10.6543112,5.02757662 17.5961538,5.02757662 M17.5961538,35.1923077 C27.3141506,35.1923077 35.1923077,27.3143137 35.1923077,17.5965182 C35.1923077,12.671679 33.1666624,8.22190936 29.9059564,5.02757662 L30.164627,5.02757662 C32.9415098,5.02757662 35.1923077,2.77682529 35.1923077,2.13162821e-14 L17.5961538,2.13162821e-14 C7.87742843,2.13162821e-14 2.13162821e-14,7.8787226 2.13162821e-14,17.5965182 C2.13162821e-14,27.3143137 7.87742843,35.1923077 17.5961538,35.1923077" id="Fill-1"></path>
                    <path d="M34.5555649,36.0405783 C33.6966972,35.0780379 32.2450281,34.9162787 31.1990369,35.6726124 C27.4594904,38.3773435 22.8610762,39.9723479 17.8876841,39.9723479 C12.9120991,39.9723479 8.31149203,38.3758862 4.57121459,35.6689692 C3.52522339,34.9119068 2.07355425,35.0729374 1.21468656,36.0362064 C0.220592885,37.1488476 0.412833058,38.8735509 1.62255734,39.7479252 C6.19246442,43.0516027 11.8112865,45 17.8876841,45 C23.9611578,45 29.5770561,43.0530599 34.1455013,39.7530257 C35.3566875,38.8786514 35.5481967,37.1539482 34.5555649,36.0405783" id="Fill-3"></path>
                    <path d="M17.5961538,23.6538462 C20.942002,23.6538462 23.6538462,20.942002 23.6538462,17.5961538 C23.6538462,14.2503057 20.942002,11.5384615 17.5961538,11.5384615 C14.2510353,11.5384615 11.5384615,14.2503057 11.5384615,17.5961538 C11.5384615,20.942002 14.2510353,23.6538462 17.5961538,23.6538462" id="Fill-5"></path>
                </g>
                <path d="M118.351252,10.9615385 C119.531462,10.9615385 120.32925,12.1601025 119.866619,13.2398065 L113.0267,29.2133057 C112.233209,31.1947797 111.252087,32.5912064 110.083336,33.4004507 C108.914584,34.2111184 107.50449,34.6153846 105.854488,34.6153846 C104.953575,34.6153846 104.06412,34.476596 103.184692,34.1997306 C102.95266,34.1271335 102.731371,34.0467073 102.522256,33.958452 C101.64784,33.5919077 101.289051,32.5485022 101.72232,31.7086533 L102.063922,31.048162 C102.459951,30.2816219 103.373755,29.9834044 104.183001,30.2944332 C104.188014,30.2965684 104.192311,30.2979919 104.19804,30.3001271 C104.700775,30.4915842 105.200646,30.5876686 105.693355,30.5876686 C106.379423,30.5876686 106.937302,30.4225457 107.365558,30.0930118 C107.795246,29.7620544 108.181249,29.2133057 108.523567,28.4460539 L108.588021,28.2866249 L102.081826,13.2447887 C101.614898,12.1643729 102.411969,10.9615385 103.59576,10.9615385 L105.171284,10.9615385 C105.8373,10.9615385 106.438148,11.3608226 106.693812,11.9722041 L111.12891,22.6290326 L115.595519,11.9693571 C115.851183,11.3593991 116.451314,10.9615385 117.115899,10.9615385 L118.351252,10.9615385 Z" id="Fill-7" fill="#6550FE"></path>
                <path d="M133.862891,22.8298061 C134.688498,21.9578593 135.103095,20.7904712 135.103095,19.3269231 C135.103095,17.863375 134.688498,16.6959869 133.862891,15.82404 C133.035849,14.952812 131.977838,14.5164791 130.688857,14.5164791 C129.400594,14.5164791 128.337562,14.952812 127.499761,15.82404 C126.66196,16.6959869 126.243776,17.863375 126.243776,19.3269231 C126.243776,20.7904712 126.66196,21.9578593 127.499761,22.8298061 C128.337562,23.7010342 129.400594,24.1366482 130.688857,24.1366482 C131.977838,24.1366482 133.035849,23.7010342 133.862891,22.8298061 M125.776817,27.1234077 C124.327162,26.3592861 123.193835,25.2997233 122.377553,23.9432816 C121.561987,22.5875587 121.153846,21.048533 121.153846,19.3269231 C121.153846,17.6045944 121.561987,16.0662874 122.377553,14.7098457 C123.193835,13.3541229 124.327162,12.2938412 125.776817,11.5304384 C127.225754,10.7670356 128.86334,10.3846154 130.688857,10.3846154 C132.514375,10.3846154 134.14694,10.7670356 135.585835,11.5304384 C137.02473,12.2938412 138.151602,13.3541229 138.968601,14.7098457 C139.784884,16.0662874 140.192308,17.6045944 140.192308,19.3269231 C140.192308,21.048533 139.784884,22.5875587 138.968601,23.9432816 C138.151602,25.2997233 137.02473,26.3592861 135.585835,27.1234077 C134.14694,27.8875294 132.514375,28.2692308 130.688857,28.2692308 C128.86334,28.2692308 127.225754,27.8875294 125.776817,27.1234077" id="Fill-9" fill="#6550FE"></path>
                <path d="M49.9817449,27.092044 C49.0359148,26.7862891 48.249291,26.4186803 47.6211499,25.9892176 C47.3076923,25.7741348 47.2158975,25.3629471 47.4069451,25.0396201 L47.4250367,25.0100989 C47.6392415,24.6488161 48.1168604,24.5461949 48.4757982,24.7753354 C49.0532828,25.1436471 49.7342515,25.4634597 50.5179806,25.7347733 C51.6114383,26.1136282 52.7548289,26.3027042 53.946705,26.3027042 C55.6588962,26.3027042 56.9209679,26.029282 57.7329199,25.4817347 C58.5455956,24.9355931 58.9522953,24.1771803 58.9522953,23.2100107 C58.9522953,22.5148575 58.7294065,21.9673102 58.2857999,21.5680716 C57.840746,21.168833 57.294379,20.8736213 56.6445279,20.6838424 C55.9946768,20.4947663 55.0944376,20.295147 53.946705,20.0842816 C52.6035829,19.8530324 51.5202565,19.6006967 50.6967258,19.3265716 C49.8731951,19.0531494 49.1690692,18.6110348 48.5843479,18.0009307 C47.9996266,17.3901237 47.7065424,16.5487705 47.7065424,15.4754653 C47.7065424,14.170208 48.264488,13.0919826 49.3803793,12.2393832 C50.4962706,11.3874867 52.0825442,10.9615385 54.1413709,10.9615385 C55.2254209,10.9615385 56.2978924,11.1084414 57.3587851,11.4029502 C58.1164623,11.6131128 58.7742737,11.8717744 59.3329431,12.1782322 C59.6918809,12.37504 59.8134566,12.8185604 59.6079357,13.1650826 L59.5963571,13.1840605 C59.3937309,13.5263655 58.946506,13.6437472 58.5940812,13.4469395 C58.0592928,13.1489163 57.4745715,12.9092325 56.8399174,12.7285911 C55.9505332,12.4769583 55.0401627,12.3497361 54.1095296,12.3497361 C52.5275981,12.3497361 51.3349983,12.6344045 50.5339012,13.2023355 C49.7320805,13.7702665 49.3318938,14.5174332 49.3318938,15.4431326 C49.3318938,16.1804588 49.5591246,16.7540129 50.0143098,17.1637948 C50.469495,17.5742796 51.026717,17.8800345 51.6881468,18.0796538 C52.3488529,18.279976 53.275144,18.4957617 54.4670201,18.7270108 C55.7877086,18.9582599 56.855838,19.2056754 57.6685137,19.4685544 C58.4804658,19.7321362 59.1679475,20.1580845 59.7324061,20.747102 C60.2954174,21.3368224 60.5769231,22.1472487 60.5769231,23.177678 C60.5769231,24.5461949 59.9922018,25.6405867 58.8220356,26.4608534 C57.6518694,27.2818229 56.0048081,27.6923077 53.8822988,27.6923077 C52.5167431,27.6923077 51.2170409,27.4919855 49.9817449,27.092044" id="Fill-11" fill="#25144E"></path>
                <path d="M74.6954937,25.3875481 C75.7095878,24.7985306 76.5117284,23.9782639 77.0990609,22.9253423 C77.6863934,21.8731236 77.9811302,20.674002 77.9811302,19.3265716 C77.9811302,17.9798442 77.6863934,16.7807225 77.0990609,15.727801 C76.5117284,14.6762851 75.7095878,13.8553156 74.6954937,13.2655952 C73.6799722,12.6772805 72.5324259,12.3820688 71.25,12.3820688 C69.9675741,12.3820688 68.8186005,12.6772805 67.8045063,13.2655952 C66.7889849,13.8553156 65.9882716,14.6762851 65.4009391,15.727801 C64.8121793,16.7807225 64.5188698,17.9798442 64.5188698,19.3265716 C64.5188698,20.674002 64.8121793,21.8731236 65.4009391,22.9253423 C65.9882716,23.9782639 66.7889849,24.7985306 67.8045063,25.3875481 C68.8186005,25.9765657 69.9675741,26.2710744 71.25,26.2710744 C72.5324259,26.2710744 73.6799722,25.9765657 74.6954937,25.3875481 M66.9709652,26.6190025 C65.699244,25.9034656 64.7001365,24.9095864 63.9743562,23.6359589 C63.2471487,22.3630344 62.8846154,20.9263377 62.8846154,19.3265716 C62.8846154,17.7275085 63.2471487,16.2915146 63.9743562,15.0178872 C64.7001365,13.7449627 65.699244,12.7503805 66.9709652,12.0348437 C68.2419727,11.3193069 69.6685555,10.9615385 71.25,10.9615385 C72.8314445,10.9615385 74.2573137,11.3193069 75.5290348,12.0348437 C76.7993287,12.7503805 77.7991499,13.7449627 78.5256438,15.0178872 C79.251424,16.2915146 79.6153846,17.7275085 79.6153846,19.3265716 C79.6153846,20.9263377 79.251424,22.3630344 78.5256438,23.6359589 C77.7991499,24.9095864 76.7993287,25.9034656 75.5290348,26.6190025 C74.2573137,27.3345393 72.8314445,27.6923077 71.25,27.6923077 C69.6685555,27.6923077 68.2419727,27.3345393 66.9709652,26.6190025" id="Fill-13" fill="#25144E"></path>
                <path d="M97.3372308,10.9615385 C97.8741629,10.9615385 98.2309116,11.5082023 98.0109286,11.9899231 L89.7716988,29.9684562 C89.1211571,31.4428786 88.3685838,32.4891048 87.5132554,33.1092757 C86.6572033,33.7287329 85.6448475,34.0384615 84.4747409,34.0384615 C83.6939461,34.0384615 82.9630817,33.9107163 82.2807004,33.6537986 C81.824091,33.4825201 81.4130702,33.2584307 81.0483617,32.9808168 C80.7451615,32.7510182 80.6822058,32.3221082 80.8927816,32.0066703 C81.129408,31.6526948 81.6127916,31.5841834 81.9601331,31.8339645 C82.6975102,32.3635006 83.546326,32.6289822 84.5073041,32.6289822 C85.3300693,32.6289822 86.0348831,32.4041792 86.6195746,31.9552868 C87.2042662,31.5071081 87.74554,30.7370685 88.2448434,29.647309 L89.154444,27.6283637 L81.9883546,11.9899231 C81.7669244,11.5074887 82.1251203,10.9615385 82.6613288,10.9615385 L82.7604658,10.9615385 C83.0520879,10.9615385 83.3162122,11.1299623 83.4348872,11.3925894 L90.0322049,25.9298519 L96.6287989,11.3925894 C96.7481975,11.1299623 97.0123218,10.9615385 97.3032203,10.9615385 L97.3372308,10.9615385 Z" id="Fill-15" fill="#25144E"></path>
            </g>
        </g>
    </g>
</svg>