<?xml version="1.0" encoding="UTF-8"?>
<svg width="26px" height="26px" viewBox="0 0 26 26" version="1.1" xmlns="http://www.w3.org/2000/svg" xmlns:xlink="http://www.w3.org/1999/xlink">
    <title>A888BE8F-3430-44BF-BE38-65C64DFF7352phone-alert-icon</title>
    <g id="Page-1" stroke="none" stroke-width="1" fill="none" fill-rule="evenodd">
        <g id="desktop-landing-flujo2-V3.1" transform="translate(-730.000000, -500.000000)" fill="#FFFFFF" fill-rule="nonzero">
            <g id="Notificacion" transform="translate(690.000000, 459.000000)">
                <g id="Group-3" transform="translate(24.000000, 24.000000)">
                    <g id="Group-4">
                        <g id="smartphone" transform="translate(16.000000, 17.000000)">
                            <path d="M18.4578333,0 L7.54216667,0 C6.49003333,0 5.63333333,0.8567 5.63333333,1.90883333 L5.63333333,24.0907333 C5.63333333,25.1433 6.49003333,26 7.54216667,26 L18.4574,26 C19.5099667,26 20.3666667,25.1433 20.3666667,24.0911667 L20.3666667,1.90883333 C20.3666667,0.8567 19.5099667,0 18.4578333,0 Z M6.5,3.46666667 L19.5,3.46666667 L19.5,19.9333333 L6.5,19.9333333 L6.5,3.46666667 Z M7.54216667,0.866666667 L18.4574,0.866666667 C19.0324333,0.866666667 19.5,1.33423333 19.5,1.90883333 L19.5,2.6 L6.5,2.6 L6.5,1.90883333 C6.5,1.33423333 6.96756667,0.866666667 7.54216667,0.866666667 Z M18.4578333,25.1333333 L7.54216667,25.1333333 C6.96756667,25.1333333 6.5,24.6657667 6.5,24.0911667 L6.5,20.8 L19.5,20.8 L19.5,24.0911667 C19.5,24.6657667 19.0324333,25.1333333 18.4578333,25.1333333 Z" id="Shape"></path>
                            <path d="M13,21.2333333 C12.0440667,21.2333333 11.2666667,22.0107333 11.2666667,22.9666667 C11.2666667,23.9226 12.0440667,24.7 13,24.7 C13.9559333,24.7 14.7333333,23.9226 14.7333333,22.9666667 C14.7333333,22.0107333 13.9559333,21.2333333 13,21.2333333 Z M13,23.8333333 C12.5220333,23.8333333 12.1333333,23.4446333 12.1333333,22.9666667 C12.1333333,22.4887 12.5220333,22.1 13,22.1 C13.4779667,22.1 13.8666667,22.4887 13.8666667,22.9666667 C13.8666667,23.4446333 13.4779667,23.8333333 13,23.8333333 Z" id="Shape"></path>
                            <path d="M11.2666667,2.16666667 L13,2.16666667 C13.2396333,2.16666667 13.4333333,1.97296667 13.4333333,1.73333333 C13.4333333,1.4937 13.2396333,1.3 13,1.3 L11.2666667,1.3 C11.0270333,1.3 10.8333333,1.4937 10.8333333,1.73333333 C10.8333333,1.97296667 11.0270333,2.16666667 11.2666667,2.16666667 Z" id="Path"></path>
                            <path d="M14.3,2.16666667 L14.7333333,2.16666667 C14.9729667,2.16666667 15.1666667,1.97296667 15.1666667,1.73333333 C15.1666667,1.4937 14.9729667,1.3 14.7333333,1.3 L14.3,1.3 C14.0603667,1.3 13.8666667,1.4937 13.8666667,1.73333333 C13.8666667,1.97296667 14.0603667,2.16666667 14.3,2.16666667 Z" id="Path"></path>
                            <path d="M24.5318667,1.9799 C24.3624333,1.81046667 24.0885667,1.81046667 23.9191333,1.9799 C23.7497,2.14933333 23.7497,2.4232 23.9191333,2.59263333 C25.5380667,4.21156667 25.5380667,6.8458 23.9191333,8.46516667 C23.7497,8.6346 23.7497,8.90846667 23.9191333,9.0779 C24.0036333,9.1624 24.1145667,9.20486667 24.2255,9.20486667 C24.3364333,9.20486667 24.4473667,9.1624 24.5318667,9.0779 C26.4888,7.1214 26.4888,3.93683333 24.5318667,1.9799 Z" id="Path"></path>
                            <path d="M22.7071,2.96616667 C22.5376667,2.79673333 22.2638,2.79673333 22.0943667,2.96616667 C21.9249333,3.1356 21.9249333,3.40946667 22.0943667,3.5789 C22.6304,4.11493333 22.9255,4.82906667 22.9255,5.58913333 C22.9255,6.3492 22.6304,7.0629 22.0943667,7.59893333 C21.9249333,7.76836667 21.9249333,8.04223333 22.0943667,8.21166667 C22.1788667,8.29616667 22.2898,8.33863333 22.4007333,8.33863333 C22.5116667,8.33863333 22.6226,8.29616667 22.7071,8.21166667 C23.4069333,7.51226667 23.7921667,6.5806 23.7921667,5.58913333 C23.7921667,4.59766667 23.4073667,3.66556667 22.7071,2.96616667 Z" id="Path"></path>
                            <path d="M2.08086667,2.59263333 C2.2503,2.4232 2.2503,2.14933333 2.08086667,1.9799 C1.91143333,1.81046667 1.63756667,1.81046667 1.46813333,1.9799 C-0.4888,3.93683333 -0.4888,7.12096667 1.46813333,9.0779 C1.55263333,9.1624 1.66356667,9.20486667 1.7745,9.20486667 C1.88543333,9.20486667 1.99636667,9.1624 2.08086667,9.0779 C2.2503,8.90846667 2.2503,8.6346 2.08086667,8.46516667 C0.4615,6.84623333 0.4615,4.212 2.08086667,2.59263333 Z" id="Path"></path>
                            <path d="M3.90563333,2.84656667 C3.7362,2.67713333 3.46233333,2.67713333 3.2929,2.84656667 C2.59306667,3.54596667 2.20783333,4.47763333 2.20783333,5.4691 C2.20783333,6.46056667 2.59306667,7.39223333 3.2929,8.09206667 C3.3774,8.17656667 3.48833333,8.21903333 3.59926667,8.21903333 C3.7102,8.21903333 3.82113333,8.17656667 3.90563333,8.09206667 C4.07506667,7.92263333 4.07506667,7.64876667 3.90563333,7.47933333 C3.3696,6.9433 3.0745,6.22916667 3.0745,5.4691 C3.0745,4.70903333 3.36916667,3.99533333 3.90563333,3.4593 C4.07463333,3.2903 4.07463333,3.016 3.90563333,2.84656667 Z" id="Path"></path>
                        </g>
                    </g>
                </g>
            </g>
        </g>
    </g>
</svg>