<?xml version="1.0" encoding="UTF-8"?>
<svg width="20px" height="26px" viewBox="0 0 20 26" version="1.1" xmlns="http://www.w3.org/2000/svg" xmlns:xlink="http://www.w3.org/1999/xlink">
    <title>Group 13</title>
    <g id="Page-1" stroke="none" stroke-width="1" fill="none" fill-rule="evenodd">
        <g id="Home" transform="translate(-60.000000, -17.000000)" fill="#6550FE">
            <g id="Group-17" transform="translate(60.000000, 17.000000)">
                <g id="Group-13" transform="translate(0.000370, -0.000124)">
                    <path d="M9.92974754,2.84761905 C13.846712,2.84761905 17.0223069,6.03488889 17.0223069,9.96666667 C17.0223069,13.8980317 13.846712,17.0857143 9.92974754,17.0857143 C6.01237188,17.0857143 2.83677702,13.8980317 2.83677702,9.96666667 C2.83677702,6.03488889 6.01237188,2.84761905 9.92974754,2.84761905 M9.92974754,19.9329206 C15.4137445,19.9329206 19.8594951,15.4708254 19.8594951,9.96666667 C19.8594951,7.1772381 18.7163961,4.65688889 16.8763356,2.84761905 L17.0223069,2.84761905 C18.5893394,2.84761905 19.8594951,1.57279365 19.8594951,1.77635684e-15 L9.92974754,1.77635684e-15 C4.44533938,1.77635684e-15 3.55271368e-14,4.46250794 3.55271368e-14,9.96666667 C3.55271368e-14,15.4708254 4.44533938,19.9329206 9.92974754,19.9329206" id="Fill-1"></path>
                    <path d="M19.3059144,20.5535365 C18.8227701,20.0083619 18.0061533,19.9167429 17.4177451,20.3451238 C15.314114,21.8770603 12.7273385,22.7804571 9.92962419,22.7804571 C7.13067634,22.7804571 4.54266727,21.8762349 2.43862494,20.3430603 C1.85021678,19.9142667 1.0336,20.005473 0.550455631,20.5510603 C-0.00875827664,21.1812508 0.0993838246,22.1581079 0.779897808,22.653346 C3.35063704,24.5245206 6.51142918,25.6280762 9.92962419,25.6280762 C13.3461745,25.6280762 16.5053218,24.525346 19.0752387,22.6562349 C19.7565751,22.1609968 19.864306,21.1841397 19.3059144,20.5535365" id="Fill-3"></path>
                    <path d="M9.92773273,13.4854984 C11.8134349,13.4854984 13.3418159,11.9514984 13.3418159,10.0588635 C13.3418159,8.16622857 11.8134349,6.63222857 9.92773273,6.63222857 C8.04244172,6.63222857 6.51364958,8.16622857 6.51364958,10.0588635 C6.51364958,11.9514984 8.04244172,13.4854984 9.92773273,13.4854984" id="Fill-5"></path>
                </g>
            </g>
        </g>
    </g>
</svg>