<?xml version="1.0" encoding="UTF-8"?>
<svg width="171px" height="180px" viewBox="0 0 171 180" version="1.1" xmlns="http://www.w3.org/2000/svg" xmlns:xlink="http://www.w3.org/1999/xlink">
    <title>0643D6DE-DFA0-44FE-9A45-34F12DF8B186</title>
    <g id="Page-1" stroke="none" stroke-width="1" fill="none" fill-rule="evenodd">
        <g id="Registro-Web-3-QR-Negro" transform="translate(-830.000000, -329.000000)">
            <g id="Group" transform="translate(830.000000, 329.000000)">
                <rect id="Rectangle" fill="#FFFFFF" x="0" y="0" width="170.564516" height="180" rx="13"></rect>
                <g id="qr-code" transform="translate(23.000000, 28.000000)" fill="#000000" fill-rule="nonzero">
                    <path d="M0,0 L0,40.968372 L40.968372,40.968372 L40.968372,0 L0,0 Z M31.328755,31.328755 L9.63961694,31.328755 L9.63961694,9.63961694 L31.328755,9.63961694 L31.328755,31.328755 Z" id="Shape"></path>
                    <rect id="Rectangle" x="15.6643775" y="15.6643775" width="9.63961694" height="9.63961694"></rect>
                    <path d="M82.4187248,0 L82.4187248,40.968372 L123.387097,40.968372 L123.387097,0 L82.4187248,0 Z M113.74748,31.328755 L92.0583417,31.328755 L92.0583417,9.63961694 L113.74748,9.63961694 L113.74748,31.328755 Z" id="Shape"></path>
                    <rect id="Rectangle" x="98.0831023" y="15.6643775" width="9.63961694" height="9.63961694"></rect>
                    <path d="M0,82.4187248 L0,123.387097 L40.968372,123.387097 L40.968372,82.4187248 L0,82.4187248 Z M31.328755,113.74748 L9.63961694,113.74748 L9.63961694,92.0583417 L31.328755,92.0583417 L31.328755,113.74748 Z" id="Shape"></path>
                    <rect id="Rectangle" x="15.6643775" y="98.0831023" width="9.63961694" height="9.63961694"></rect>
                    <rect id="Rectangle" x="9.63961694" y="47.4751134" width="9.63961694" height="9.63961694"></rect>
                    <polygon id="Path" points="28.9188508 66.7543473 28.9188508 57.1147303 19.2792339 57.1147303 19.2792339 66.7543473 28.6778604 66.7543473 28.6778604 76.3939642 38.3174773 76.3939642 38.3174773 66.7543473"></polygon>
                    <rect id="Rectangle" x="67.4773185" y="18.5562626" width="9.63961694" height="9.63961694"></rect>
                    <rect id="Rectangle" x="48.1980847" y="9.63961694" width="9.63961694" height="18.5562626"></rect>
                    <rect id="Rectangle" x="57.8377016" y="0" width="9.63961694" height="9.63961694"></rect>
                    <polygon id="Path" points="57.8377016 28.1958795 57.8377016 37.8354965 48.1980847 37.8354965 48.1980847 47.4751134 67.4773185 47.4751134 67.4773185 28.1958795"></polygon>
                    <polygon id="Path" points="67.4773185 85.5516003 67.4773185 76.1529738 57.8377016 76.1529738 57.8377016 57.1147303 48.1980847 57.1147303 48.1980847 76.3939642 57.8377016 76.3939642 57.8377016 85.7925907 67.4773185 85.7925907 67.4773185 95.1912172 86.7565524 95.1912172 86.7565524 85.5516003"></polygon>
                    <rect id="Rectangle" x="67.4773185" y="47.4751134" width="9.63961694" height="19.2792339"></rect>
                    <path d="M113.74748,56.8737399 L113.74748,47.4751134 L96.1551789,47.4751134 L96.1551789,57.1147303 L86.7565524,57.1147303 L86.7565524,66.7543473 L96.3961694,66.7543473 L96.3961694,76.1529738 L123.387097,76.1529738 L123.387097,56.8737399 L113.74748,56.8737399 Z M113.74748,66.5133569 L96.3961694,66.5133569 L96.3961694,57.1147303 L113.74748,57.1147303 L113.74748,66.5133569 Z" id="Shape"></path>
                    <rect id="Rectangle" x="113.74748" y="85.5516003" width="9.63961694" height="19.2792339"></rect>
                    <rect id="Rectangle" x="77.1169355" y="66.7543473" width="9.63961694" height="9.63961694"></rect>
                    <rect id="Rectangle" x="86.7565524" y="95.1912172" width="9.63961694" height="9.63961694"></rect>
                    <rect id="Rectangle" x="96.3961694" y="85.5516003" width="9.63961694" height="9.63961694"></rect>
                    <polygon id="Path" points="96.3961694 104.830834 96.3961694 123.387097 106.035786 123.387097 106.035786 114.470451 113.74748 114.470451 113.74748 104.830834"></polygon>
                    <rect id="Rectangle" x="48.1980847" y="85.7925907" width="9.63961694" height="18.3152722"></rect>
                    <polygon id="Path" points="77.1169355 113.74748 77.1169355 104.107863 57.8377016 104.107863 57.8377016 123.387097 67.4773185 123.387097 67.4773185 113.74748 76.8759451 113.74748 76.8759451 123.387097 86.515562 123.387097 86.515562 113.74748"></polygon>
                    <rect id="Rectangle" x="28.9188508" y="47.4751134" width="19.2792339" height="9.63961694"></rect>
                    <rect id="Rectangle" x="0" y="57.1147303" width="9.63961694" height="19.2792339"></rect>
                </g>
            </g>
        </g>
    </g>
</svg>