<?xml version="1.0" encoding="UTF-8"?>
<svg width="59px" height="60px" viewBox="0 0 59 60" version="1.1" xmlns="http://www.w3.org/2000/svg" xmlns:xlink="http://www.w3.org/1999/xlink">
    <title>DE8A7294-8C51-4339-B01C-496FF75FF84E</title>
    <g id="Page-1" stroke="none" stroke-width="1" fill="none" fill-rule="evenodd">
        <g id="Registro-Web-4" transform="translate(-205.000000, -426.000000)">
            <g id="Notificacion" transform="translate(181.000000, 402.386684)">
                <g id="Group" transform="translate(24.000000, 24.000000)">
                    <g id="Group-4">
                        <circle id="Oval" fill="#FFA329" cx="29.5" cy="29.5" r="29.5"></circle>
                        <path d="M35.4578333,17 L24.5421667,17 C23.4900333,17 22.6333333,17.8567 22.6333333,18.9088333 L22.6333333,41.0907333 C22.6333333,42.1433 23.4900333,43 24.5421667,43 L35.4574,43 C36.5099667,43 37.3666667,42.1433 37.3666667,41.0911667 L37.3666667,18.9088333 C37.3666667,17.8567 36.5099667,17 35.4578333,17 Z M23.5,20.4666667 L36.5,20.4666667 L36.5,36.9333333 L23.5,36.9333333 L23.5,20.4666667 Z M24.5421667,17.8666667 L35.4574,17.8666667 C36.0324333,17.8666667 36.5,18.3342333 36.5,18.9088333 L36.5,19.6 L23.5,19.6 L23.5,18.9088333 C23.5,18.3342333 23.9675667,17.8666667 24.5421667,17.8666667 Z M35.4578333,42.1333333 L24.5421667,42.1333333 C23.9675667,42.1333333 23.5,41.6657667 23.5,41.0911667 L23.5,37.8 L36.5,37.8 L36.5,41.0911667 C36.5,41.6657667 36.0324333,42.1333333 35.4578333,42.1333333 Z" id="Shape" fill="#FFFFFF" fill-rule="nonzero"></path>
                    </g>
                    <g id="smartphone" transform="translate(22.000000, 17.000000)" fill="#FFFFFF" fill-rule="nonzero">
                        <path d="M8,21.2333333 C7.04406667,21.2333333 6.26666667,22.0107333 6.26666667,22.9666667 C6.26666667,23.9226 7.04406667,24.7 8,24.7 C8.95593333,24.7 9.73333333,23.9226 9.73333333,22.9666667 C9.73333333,22.0107333 8.95593333,21.2333333 8,21.2333333 Z M8,23.8333333 C7.52203333,23.8333333 7.13333333,23.4446333 7.13333333,22.9666667 C7.13333333,22.4887 7.52203333,22.1 8,22.1 C8.47796667,22.1 8.86666667,22.4887 8.86666667,22.9666667 C8.86666667,23.4446333 8.47796667,23.8333333 8,23.8333333 Z" id="Shape"></path>
                        <path d="M6.26666667,2.16666667 L8,2.16666667 C8.23963333,2.16666667 8.43333333,1.97296667 8.43333333,1.73333333 C8.43333333,1.4937 8.23963333,1.3 8,1.3 L6.26666667,1.3 C6.02703333,1.3 5.83333333,1.4937 5.83333333,1.73333333 C5.83333333,1.97296667 6.02703333,2.16666667 6.26666667,2.16666667 Z" id="Path"></path>
                        <path d="M9.3,2.16666667 L9.73333333,2.16666667 C9.97296667,2.16666667 10.1666667,1.97296667 10.1666667,1.73333333 C10.1666667,1.4937 9.97296667,1.3 9.73333333,1.3 L9.3,1.3 C9.06036667,1.3 8.86666667,1.4937 8.86666667,1.73333333 C8.86666667,1.97296667 9.06036667,2.16666667 9.3,2.16666667 Z" id="Path"></path>
                    </g>
                </g>
            </g>
        </g>
    </g>
</svg>